<svg xmlns="http://www.w3.org/2000/svg" width="156.349" height="55.776" viewBox="0 0 156.349 55.776">
  <g id="Group_4223" data-name="Group 4223" transform="translate(0 0)">
    <path id="Path_3835" data-name="Path 3835" d="M-112.177,247.909c-3.407-.311-6.821-.565-10.232-.848-1.125-.093-2.256-.134-3.383-.2l-7.333-.427c-1.362-.08-2.724-.167-4.086-.239-.394-.02-.789-.036-1.184-.049-.888-.029-1.776-.044-2.663-.072l-12.109-.381c-.961-.031-1.923-.039-2.883-.057l-7.139-.139c-2.685-.052-5.37-.126-8.055-.147l-13.037-.1c-2.516-.02-5.033-.067-7.549-.049q-6.5.047-13.007.09c-2.369.016-4.74.016-7.108.071l-13.458.311c-2.4.056-4.795.076-7.189.2l-13.411.7-2.9.152c-1.93.1-3.857.293-5.783.447l-.363.038a1.352,1.352,0,0,0-.61.329,1.363,1.363,0,0,0-.429.946,1.369,1.369,0,0,0,.367.974,1.3,1.3,0,0,0,.948.429c2.324-.185,4.646-.386,6.974-.507l6.473-.337,7.063-.367c.948-.05,1.9-.125,2.849-.147q5.5-.126,11-.246l6.859-.155c.944-.021,1.89-.055,2.834-.062q5.45-.04,10.9-.062l6.605-.038c.74,0,1.48-.016,2.22-.009q5.882.056,11.762.115l6.568.064c.78.008,1.559.007,2.338.024l12.125.271c2.522.055,5.041.114,7.562.2l12.87.451c.846.029,1.691.092,2.537.144l7.1.44,5.324.331c1.258.078,2.515.213,3.772.322q5.55.483,11.1,1c.939.09,1.877.192,2.816.291,1.006.106,2.014.211,3.015.357.156.031.311.066.465.1a1.531,1.531,0,0,0,1.138-.111,1.481,1.481,0,0,0,.7-.857,1.486,1.486,0,0,0-.967-1.842,12.487,12.487,0,0,0-2.062-.4l-1.424-.191c-.914-.122-1.836-.2-2.752-.3-1.719-.185-3.445-.318-5.166-.474" transform="translate(256.089 -207.393)" fill="#ef4578"/>
    <path id="Path_3836" data-name="Path 3836" d="M-237.952,209.494v-.4l-.283-1.472-.114-1.019-.283-1.246v-1.132l-.17-.4-.34-1.189-.623-3-.453-2.492h-.227l-.057.057-.51,1.529-1.019,3.114-.905,2.661-.227.906-.849,3.171v.623Zm5.379,9.8-.114.566-.509.51v.227l-.623.283-.736-.057-.679-1.374v-.859l-.51-.8-.227-1.375-.51-1.661-.283-.516-.283-1.719-.4-.916-2.321-.229-4.756-.171-.284.173-.226,1.838-.17,1.033-.227.689.113,1.436.169.286.114.689v.805l-1.19,1.148h-.906l-.566-.962v-1.359l.057-.679.623-2.492V213l.4-1.132v-.453l-.679-.227h-5.492l-.624-.762-.283-.653.057-.6.509-.381,1.189-.381.793.283,1.245.113,2.492.4h1.188l.51-.793.51-2.321.4-1.076.284-1.416.4-.906.339-1.246.284-.623.452-1.926.907-2.773.34-1.756.283-1.019v-.906l.566-.906.737-.4,1.472.113.283.679.227,4.02.226.963.453,3.51.227.283.113,1.132,1.472,8.266.793,3,.962,3,.792,2.038Z" transform="translate(255.369 -191.15)" fill="#fff"/>
    <path id="Path_3837" data-name="Path 3837" d="M-211.641,219.476l-.17,2.775-.4,1.189-.623,1.019-.17.566-1.019,1.3-1.3.679-2.661-.567-1.925-1.3-1.19-1.585-.905-2.378-.283-1.019-.113-1.132-.227-.623v-1.132l-.244-1.245-.548-.623.283-1.132.453-.4h.906l.793.509v3.4l.229,1.188.4,1.982,1.083,2.265,1.426,1.3,1.54.453,1.369-.623.229-.339.741-1.359.227-.679.4-2.831-.453-4.189-.623-.567.113-.849.17-.17.51-.113h.4l1.075,1.3.113,1.019.4,1.812Z" transform="translate(246.27 -197.792)" fill="#fff"/>
    <path id="Path_3838" data-name="Path 3838" d="M-193.123,222.868l-.113.736-.169.51-1.7,1.528-2.266.906-1.868-.113-1.133-.453-1.529-1.529-1.3-2.208-.4-.963-.283-.509-.227-.906-.283-.906-.34-1.472-.169-.34-.114-1.585-.169-.227v-1.246l-.4-.736-.113-5.492.113-3,.227-2.152.057-2.661v-1.7l-.227-.339v-1.586l.962-.906,1.19.113.283.17.283.509-.057,1.416-.227.283-.113,1.189-.169.849-.227,2.264-.169,1.189-.113,4.077v1.812l.17,1.755h1.982l.736-.17,1.246-.113,2.378-.283h.793l2.492.226.452.283v.792l-.283.17-1.585.113-1.3.34h-.906l-2.038.455-1.642.285-.623.284-1.189.227-.283.285.17,2.559.283.625.227,1.081.905,2.5,1.3,2.445,1.3,1.309,1.076.284,2.491-.793,1.189-.906.283-.68h.623l.284.17Z" transform="translate(240.943 -192.464)" fill="#fff"/>
    <path id="Path_3839" data-name="Path 3839" d="M-174.035,216.021l-.283-.566-.057-.849-2.208-2.039-.793-.34-1.415-.113-.906.113-.4.34-.736.057-2.266,1.529v.17l.114.113.17.793-.4.736-.51,1.472-.4,2.774.34,2.491.679,1.019,1.076.113h1.19l3.453-1.925,2.038-1.868,1.019-1.812.227-.793Zm2.152-.453-.34,2.492-.623,1.812-.962,1.189-.283.623-.793.453-1.019,1.019-1.982,1.416-2.717,1.3-1.472.17-.906-.17-1.3-.623-1.585-2.378-.227-1.586-.17-.227.17-.962.113-2.322.169-.4-.056-.566-.4-.283.566-1.924,2.378-2.492.34-.283,2.6-1.132,1.3-.283,2.831.17,2.321,1.246,1.585,1.982Z" transform="translate(235.105 -196.94)" fill="#fff"/>
    <path id="Path_3840" data-name="Path 3840" d="M-148.826,224.252l-.057,1.359-.906.623-.679-.113-.736-.792-.171-4.7v-3.963l.171-2.1-.173-.339h-.4l-2.126,2.661-1.84,2.944-.4,1.019-.689.4-.115.34-.633.339-.689-.17-.575-1.019.566-2.774V216.1l.227-.453-.113-2.379-.17-.283v-.623l-.339-.906h-.453l-2.322,2.435-1.189,1.756-.283.735-.51.68v2.661l.495,1.926.185,1.415-.169.4-.453.283-.566-.113-.85-.962-.283-1.7-.283-1.3V217.74l-.458-.792-.052-.4v-.283l.453-1.189v-4.812l-.227-1.3-.227-.283v-.567l1.128-.906.534-.113h.535l.237.17v5.322l.057.113h.34l1.982-2.548.51-.283.962-.906,1.133-.283,1.188.226.907,1.586.283,2.492-.227,2.661.34.283h.17l1.189-1.528,1.019-1.416,1.7-1.869.509-.509h.567l.906.509.227.283.283.567.227,2.208-.227,4.926v4.36Z" transform="translate(228.975 -195.943)" fill="#fff"/>
    <path id="Path_3841" data-name="Path 3841" d="M-129.38,218.594l-.169-.4.169-1.472-.283-3.227-.226-.4-.793-.793-1.7-.227-.453.227-2.038.679-1.472,1.076-2.491,2.492-.793,1.245-.283.962.057.793.453.736,1.076.679,2.492.113,1.3-.113,1.586-.509,2.887-.906.623-.567Zm2.208,3.964-.339.792-.85.51h-.792l-.736-.68.34-2.208v-.283h-.51l-.792.509-.51.057-.792.51-1.7.736-1.472.17-.679.17-2.831-.057-.68-.453-1.189-.339-1.188-1.416-.34-.737.113-1.472.51-1.076.509-.51v-.226l.907-1.077,2.491-2.491,1.755-1.416,1.076-.566,2.718-.736,2.434.226.171-.283-.907-2.831-.566-.849-.85-1.132-1.3-.906h-1.472l-1.075.623-1.3,1.586-.34.793v.623l-.623.623-.339-.17-.68-.849V206.7l.4-1.076.737-1.019.453-.566,1.925-1.3,1.132-.34,1.812.227,1.3.793,1.019.962.962,1.529.793,1.472.736,2.718.34,4.472v5.1l.226,2.322Z" transform="translate(221.871 -194.532)" fill="#fff"/>
    <path id="Path_3842" data-name="Path 3842" d="M-106.918,222.868l-.113.736-.169.51-1.7,1.528-2.265.906-1.868-.113-1.133-.453-1.529-1.529-1.3-2.208-.4-.963-.283-.509-.227-.906-.283-.906-.34-1.472-.169-.34-.114-1.585-.169-.227v-1.246l-.4-.736-.113-5.492.113-3,.227-2.152.057-2.661v-1.7l-.227-.339v-1.586l.962-.906,1.19.113.283.17.283.509-.057,1.416-.227.283L-117,199.2l-.169.849-.227,2.264-.169,1.189-.113,4.077v1.812l.17,1.755h1.982l.736-.17,1.246-.113,2.377-.283h.793l2.492.226.452.283v.792l-.283.17-1.585.113-1.3.34h-.906l-2.038.455-1.642.285-.623.284-1.189.227-.283.285.17,2.559.283.625.227,1.081.905,2.5,1.3,2.445,1.3,1.309,1.076.284,2.49-.793,1.19-.906.283-.68h.623l.284.17Z" transform="translate(215.036 -192.464)" fill="#fff"/>
    <path id="Path_3843" data-name="Path 3843" d="M-95.466,221.744l-.114,1.925h-.905l-.453-.509v-.283l-.34-.283v-.453l-.283-.4V218.4l-.227-.339.227-.283-.113-4.021-.226-2.377v-.51l-.283-.962.113-.793.623-.623.963.226.509.4.17.17v2.887l.226.283-.226.509v4.473l.113,2.944ZM-96.6,198.53l-.057.4-.453.227-2.264-.34-.793-.4-.623-.906v-.567l.4-.736.509-.283,1.189.113.793.623.623,1.132Z" transform="translate(209.417 -192.586)" fill="#fff"/>
    <path id="Path_3844" data-name="Path 3844" d="M-78.951,223.715l-.058.682-.754.625-.7-.113-.406-.227-.406-.623-.34-4.133v-4.19l-.51-2.095-.113-.056-.453.566-.453.793-1.245,2.265-1.3,2.491-2.435,3.227-.962.793-.34-.113-.962-.793-.283-.679.057-1.416.736-4.076.113-1.076.171-.339v-1.812l-.51-1.189.113-.509.793-.623.906-.227.51.4.283.283v3.4l-.283,1.019-.113.906-.283,1.472-.113.113v.283l.287.339,1.263-1.367,1.377-2.679.517-1.139.63-.969.976-1.54.8-.8.632-.171.976.113.516.512.688,3.979v5.8l.4,2.273Z" transform="translate(206.376 -196.94)" fill="#fff"/>
    <path id="Path_3845" data-name="Path 3845" d="M-63.67,214.122l-.227-.17v-.736l-1.755-2.208-1.076-.906h-1.3l-1.132.4-.679.113-.283-.17v-.623l-.227-.227h-.509l-.17.113-.849.793-.057.453-.51.51-.283.793-.226.679v1.642l.453,1.416.792,1.076.453.34,1.3.509,1.7.113.51-.226.736-.114,1.246-.679V216.9l1.812-1.358ZM-53.2,236.657l-.51-1.7-1.755-2.208-1.3-.793-1.982-.679h-4.133l-.51.218-1.076.164-1.7.6-2.492,1.91-.566.109-.283-.227v-.509l.17-.793,1.3-1.472.849-.51.736-.509,2.492-.793-.906-.679h-.51l-.113.113-1.076.057-1.7.509-2.378,1.416-1.358,1.3-.623.85-.623,1.246-.283.962-.113,1.925.623,2.491,1.019,2.209,1.981,2.151.963.51.906.509,1.585.4h2.492l3-.566,1.188-.34,1.585-.793,2.718-1.812,1.528-1.415.793-1.359Zm1.925.736-.227,1.529-.51,1.754-.566.85-2.717,2.208-2.888,1.755-.792.227-.4.283-.907.227-.283.283-1.3.34-2.492.283-2.208-.113-3.454-1.188-1.7-1.189-1.132-1.019-1.7-2.661-.4-1.245-.227-.17-.169-.906-.283-1.415v-1.868l.283-1.3.169-.906v-.17l2.152-2.491,2.095-1.812,2.264-1.132,1.642-.566,1.359-.227.793-.17-.17-.906-.736-.962v-.227l-2.265-2.774-.339-1.019.113-.51v-.113l-.169-.169-2.209-.34-1.7-.623-1.019-.849-1.189-1.642-.453-1.528v-2.322l1.358-3.171.4-.679.906-.793h1.7l.51.283.453.849.737-.34.962-.4.509-.737v-.169l2.095-1.926.51-.566h.17l2.152-1.982,1.472.057.623,1.076-.227,1.132v.906l-.509.4h-.567v-.057l-.283-.339-.737.339-1.132.737-1.132,1.585,1.982,2.208,1.189,2.321V215.2l-.792,1.812-1.529,1.3-1.982,1.076-.057.113.68.793.4,1.189,1.246,1.7,1.528,2.773.907,1.756.509.34.17.849-.113.283.453.283H-59.2l2.152.51,1.472.566,1.585,1.359,1.586,1.982.68,1.642.226.907Z" transform="translate(201.851 -194.702)" fill="#fff"/>
    <path id="Path_3846" data-name="Path 3846" d="M-247.976,264.36v-2.708h-.194a.5.5,0,0,1-.506-.506.5.5,0,0,1,.506-.506h.194v-.877a.588.588,0,0,1,.595-.584.586.586,0,0,1,.584.584v.877h.926a.512.512,0,0,1,.516.506.512.512,0,0,1-.516.506h-.926v2.523a.561.561,0,0,0,.634.643,2.851,2.851,0,0,0,.292-.029.5.5,0,0,1,.5.487.508.508,0,0,1-.312.458,2.35,2.35,0,0,1-.809.136,1.319,1.319,0,0,1-1.481-1.51" transform="translate(253.861 -211.595)" fill="#fff"/>
    <path id="Path_3847" data-name="Path 3847" d="M-242.3,258.968a.58.58,0,0,1,.585-.584.588.588,0,0,1,.594.584v2.221a1.866,1.866,0,0,1,1.608-.9,1.763,1.763,0,0,1,1.831,1.968v2.748a.575.575,0,0,1-.585.585.582.582,0,0,1-.594-.585v-2.387c0-.8-.4-1.256-1.1-1.256a1.144,1.144,0,0,0-1.16,1.275v2.368a.582.582,0,0,1-.594.585.581.581,0,0,1-.585-.585Z" transform="translate(251.944 -211.356)" fill="#fff"/>
    <path id="Path_3848" data-name="Path 3848" d="M-230.251,263.433a1.336,1.336,0,0,0-1.306-1.355,1.392,1.392,0,0,0-1.334,1.355Zm-1.17,3.049a2.566,2.566,0,0,1-2.64-2.669v-.02a2.553,2.553,0,0,1,2.514-2.679,2.433,2.433,0,0,1,2.445,2.533.551.551,0,0,1-.555.565h-3.225a1.437,1.437,0,0,0,1.481,1.305,1.847,1.847,0,0,0,1.217-.448.442.442,0,0,1,.3-.107.464.464,0,0,1,.467.478.515.515,0,0,1-.155.36,2.641,2.641,0,0,1-1.851.682" transform="translate(249.469 -212.177)" fill="#fff"/>
    <path id="Path_3849" data-name="Path 3849" d="M-221.059,261.773a.583.583,0,0,1,.585-.594.59.59,0,0,1,.594.594v.526a1.636,1.636,0,0,1,1.3-1.13.548.548,0,0,1,.585.585.554.554,0,0,1-.468.565c-.838.146-1.413.789-1.413,2.007v1.52a.588.588,0,0,1-.594.584.58.58,0,0,1-.585-.584Z" transform="translate(245.561 -212.193)" fill="#fff"/>
    <path id="Path_3850" data-name="Path 3850" d="M-212.149,263.433a1.336,1.336,0,0,0-1.306-1.355,1.392,1.392,0,0,0-1.334,1.355Zm-1.17,3.049a2.566,2.566,0,0,1-2.64-2.669v-.02a2.553,2.553,0,0,1,2.514-2.679A2.433,2.433,0,0,1-211,263.647a.551.551,0,0,1-.555.565h-3.225a1.437,1.437,0,0,0,1.481,1.305,1.848,1.848,0,0,0,1.217-.448.442.442,0,0,1,.3-.107.464.464,0,0,1,.467.478.515.515,0,0,1-.155.36,2.642,2.642,0,0,1-1.852.682" transform="translate(244.028 -212.177)" fill="#fff"/>
    <path id="Path_3851" data-name="Path 3851" d="M-207.543,263.821v-.02a2.655,2.655,0,0,1,2.68-2.689,2.6,2.6,0,0,1,1.8.643.559.559,0,0,1,.185.409.536.536,0,0,1-.546.535.6.6,0,0,1-.35-.116,1.629,1.629,0,0,0-1.1-.439,1.552,1.552,0,0,0-1.491,1.637v.019a1.557,1.557,0,0,0,1.54,1.647,1.722,1.722,0,0,0,1.15-.457.509.509,0,0,1,.321-.127.512.512,0,0,1,.506.516.46.46,0,0,1-.165.371,2.518,2.518,0,0,1-1.871.73,2.626,2.626,0,0,1-2.659-2.659" transform="translate(241.499 -212.177)" fill="#fff"/>
    <path id="Path_3852" data-name="Path 3852" d="M-184.727,260.961a.583.583,0,0,1,.584-.595.591.591,0,0,1,.595.595v4.072a.582.582,0,0,1-.595.585.58.58,0,0,1-.584-.585Zm-.087-1.919a.6.6,0,0,1,.671-.575.6.6,0,0,1,.673.575v.058a.61.61,0,0,1-.673.585.61.61,0,0,1-.671-.585Z" transform="translate(234.669 -211.381)" fill="#fff"/>
    <path id="Path_3853" data-name="Path 3853" d="M-180.754,264.36v-2.708h-.194a.5.5,0,0,1-.506-.506.5.5,0,0,1,.506-.506h.194v-.877a.588.588,0,0,1,.6-.584.585.585,0,0,1,.583.584v.877h.926a.512.512,0,0,1,.516.506.512.512,0,0,1-.516.506h-.926v2.523a.561.561,0,0,0,.634.643,2.851,2.851,0,0,0,.292-.029.5.5,0,0,1,.5.487.509.509,0,0,1-.311.458,2.356,2.356,0,0,1-.809.136,1.319,1.319,0,0,1-1.481-1.51" transform="translate(233.659 -211.595)" fill="#fff"/>
    <path id="Path_3854" data-name="Path 3854" d="M-175.074,261.757a.583.583,0,0,1,.585-.594.59.59,0,0,1,.594.594V262a1.845,1.845,0,0,1,1.569-.886,1.632,1.632,0,0,1,1.539.906,2.07,2.07,0,0,1,1.734-.906,1.729,1.729,0,0,1,1.8,1.968v2.748a.574.574,0,0,1-.585.584.582.582,0,0,1-.594-.584v-2.387c0-.818-.381-1.256-1.042-1.256-.643,0-1.1.448-1.1,1.276v2.368a.58.58,0,0,1-.585.584.583.583,0,0,1-.595-.584v-2.4c0-.8-.389-1.247-1.042-1.247a1.123,1.123,0,0,0-1.1,1.276v2.368a.582.582,0,0,1-.594.584.58.58,0,0,1-.585-.584Z" transform="translate(231.741 -212.177)" fill="#fff"/>
    <path id="Path_3855" data-name="Path 3855" d="M-158.432,263.433a1.336,1.336,0,0,0-1.305-1.355,1.394,1.394,0,0,0-1.335,1.355Zm-1.17,3.049a2.566,2.566,0,0,1-2.64-2.669v-.02a2.553,2.553,0,0,1,2.514-2.679,2.433,2.433,0,0,1,2.445,2.533.551.551,0,0,1-.555.565h-3.225a1.437,1.437,0,0,0,1.481,1.305,1.849,1.849,0,0,0,1.218-.448.442.442,0,0,1,.3-.107.464.464,0,0,1,.467.478.518.518,0,0,1-.155.36,2.643,2.643,0,0,1-1.851.682" transform="translate(227.885 -212.177)" fill="#fff"/>
    <path id="Path_3856" data-name="Path 3856" d="M-153.42,261.757a.583.583,0,0,1,.585-.594.59.59,0,0,1,.594.594v.253a1.867,1.867,0,0,1,1.608-.9,1.763,1.763,0,0,1,1.831,1.968v2.748a.574.574,0,0,1-.585.584.582.582,0,0,1-.594-.584v-2.387c0-.8-.4-1.256-1.1-1.256a1.144,1.144,0,0,0-1.16,1.276v2.368a.582.582,0,0,1-.594.584.58.58,0,0,1-.585-.584Z" transform="translate(225.234 -212.177)" fill="#fff"/>
    <path id="Path_3857" data-name="Path 3857" d="M-144.733,264.36v-2.708h-.194a.5.5,0,0,1-.506-.506.5.5,0,0,1,.506-.506h.194v-.877a.588.588,0,0,1,.595-.584.586.586,0,0,1,.584.584v.877h.926a.512.512,0,0,1,.516.506.512.512,0,0,1-.516.506h-.926v2.523a.561.561,0,0,0,.634.643,2.85,2.85,0,0,0,.292-.029.5.5,0,0,1,.5.487.509.509,0,0,1-.311.458,2.356,2.356,0,0,1-.809.136,1.319,1.319,0,0,1-1.481-1.51" transform="translate(222.834 -211.595)" fill="#fff"/>
    <path id="Path_3858" data-name="Path 3858" d="M-135.282,259.042a.6.6,0,0,1,.672-.574.6.6,0,0,1,.672.574v.059a.61.61,0,0,1-.672.584.61.61,0,0,1-.672-.584Zm-.243,8.115c-.371-.01-.644-.166-.644-.487a.467.467,0,0,1,.468-.488c.02,0,.058.01.069.01.262,0,.438-.166.438-.555v-4.676a.583.583,0,0,1,.585-.594.59.59,0,0,1,.594.594v4.676a1.323,1.323,0,0,1-1.422,1.52Z" transform="translate(220.049 -211.382)" fill="#fff"/>
    <path id="Path_3859" data-name="Path 3859" d="M-126.985,263.821v-.02a1.59,1.59,0,0,0-1.578-1.656,1.545,1.545,0,0,0-1.549,1.637v.019a1.585,1.585,0,0,0,1.569,1.647,1.544,1.544,0,0,0,1.558-1.627m-4.306,0v-.02a2.689,2.689,0,0,1,2.748-2.689,2.665,2.665,0,0,1,2.738,2.67v.019a2.69,2.69,0,0,1-2.757,2.679,2.661,2.661,0,0,1-2.728-2.659" transform="translate(218.583 -212.177)" fill="#fff"/>
    <path id="Path_3860" data-name="Path 3860" d="M-117.188,265.849a.588.588,0,0,1-.594.585.589.589,0,0,1-.595-.585v-.263a1.851,1.851,0,0,1-1.607.906,1.766,1.766,0,0,1-1.832-1.977v-2.738a.588.588,0,0,1,.585-.594.59.59,0,0,1,.594.594v2.387c0,.8.4,1.247,1.1,1.247a1.136,1.136,0,0,0,1.16-1.267v-2.368a.591.591,0,0,1,.595-.594.6.6,0,0,1,.594.594Z" transform="translate(215.735 -212.198)" fill="#fff"/>
    <path id="Path_3861" data-name="Path 3861" d="M-113.093,261.773a.583.583,0,0,1,.585-.594.59.59,0,0,1,.594.594v.526a1.636,1.636,0,0,1,1.3-1.13.548.548,0,0,1,.585.585.553.553,0,0,1-.468.565c-.838.146-1.413.789-1.413,2.007v1.52a.588.588,0,0,1-.594.584.58.58,0,0,1-.585-.584Z" transform="translate(213.114 -212.193)" fill="#fff"/>
    <path id="Path_3862" data-name="Path 3862" d="M-107.338,261.757a.583.583,0,0,1,.585-.594.59.59,0,0,1,.594.594v.253a1.867,1.867,0,0,1,1.608-.9,1.763,1.763,0,0,1,1.831,1.968v2.748a.574.574,0,0,1-.584.584.582.582,0,0,1-.595-.584v-2.387c0-.8-.4-1.256-1.1-1.256a1.144,1.144,0,0,0-1.16,1.276v2.368a.582.582,0,0,1-.594.584.58.58,0,0,1-.585-.584Z" transform="translate(211.385 -212.177)" fill="#fff"/>
    <path id="Path_3863" data-name="Path 3863" d="M-95.293,263.433a1.336,1.336,0,0,0-1.306-1.355,1.392,1.392,0,0,0-1.334,1.355Zm-1.17,3.049a2.566,2.566,0,0,1-2.64-2.669v-.02a2.553,2.553,0,0,1,2.514-2.679,2.433,2.433,0,0,1,2.445,2.533.551.551,0,0,1-.555.565h-3.225a1.437,1.437,0,0,0,1.481,1.305,1.848,1.848,0,0,0,1.218-.448.442.442,0,0,1,.3-.107.464.464,0,0,1,.467.478.515.515,0,0,1-.155.36,2.642,2.642,0,0,1-1.852.682" transform="translate(208.91 -212.177)" fill="#fff"/>
    <path id="Path_3864" data-name="Path 3864" d="M-90.569,267.827a.5.5,0,0,1-.371-.486.475.475,0,0,1,.478-.488.581.581,0,0,1,.214.039,1.327,1.327,0,0,0,.409.067c.351,0,.536-.145.731-.544l.039-.108-1.91-4.267a.79.79,0,0,1-.069-.283.565.565,0,0,1,.585-.574.591.591,0,0,1,.574.448l1.384,3.419,1.286-3.419a.6.6,0,0,1,.565-.448.557.557,0,0,1,.564.555,1.065,1.065,0,0,1-.048.281l-1.881,4.51c-.438,1.053-.906,1.443-1.734,1.443a2.083,2.083,0,0,1-.818-.147" transform="translate(206.489 -212.198)" fill="#fff"/>
    <path id="Path_3865" data-name="Path 3865" d="M-83.012,266.629a.663.663,0,0,1,.682.671v.1a.664.664,0,0,1-.682.672.666.666,0,0,1-.692-.672v-.1a.665.665,0,0,1,.692-.671" transform="translate(204.282 -213.834)" fill="#fff"/>
    <path id="Path_3866" data-name="Path 3866" d="M-198.9,261.626a.583.583,0,0,1,.585-.594.59.59,0,0,1,.594.594v.526a1.636,1.636,0,0,1,1.3-1.13.548.548,0,0,1,.585.585.553.553,0,0,1-.468.565c-.838.146-1.413.789-1.413,2.007v1.52a.588.588,0,0,1-.594.584.58.58,0,0,1-.585-.584Z" transform="translate(238.9 -212.149)" fill="#fff"/>
    <path id="Path_3867" data-name="Path 3867" d="M-188.253,265.513a.588.588,0,0,1-.594.585.589.589,0,0,1-.595-.585v-.263a1.851,1.851,0,0,1-1.607.906,1.766,1.766,0,0,1-1.832-1.977v-2.738a.588.588,0,0,1,.585-.594.59.59,0,0,1,.594.594v2.387c0,.8.4,1.247,1.1,1.247a1.136,1.136,0,0,0,1.16-1.267v-2.368a.591.591,0,0,1,.595-.594.6.6,0,0,1,.594.594Z" transform="translate(237.093 -212.097)" fill="#fff"/>
  </g>
</svg>
